<svg width="512" height="512" xmlns="http://www.w3.org/2000/svg">

 <g>
  <title>background</title>
  <rect fill="#ffffff" id="canvas_background" height="514" width="514" y="-1" x="-1"/>
 </g>
 <g>
  <title>Layer 1</title>
  <metadata id="CorelCorpID_0Corel-Layer"/>
  <g id="svg_14">
   <path fill-rule="nonzero" fill="#2b2b2a" id="svg_3" d="m212.88142,167.463193c0.614413,-0.024577 220.205583,-11.526386 220.205583,329.693962l-22.85616,0c-23.962103,-56.771752 -51.364918,-97.937416 -85.35424,-124.848701c-34.308816,-27.15705 -75.916858,-40.010568 -128.092801,-40.010568c-19.734942,0 -37.602069,7.987368 -50.529317,20.914615c-12.927247,12.927247 -20.914615,30.794374 -20.914615,50.529317l0,0.172036l-0.049153,0c0.049153,19.661213 8.036521,37.479187 20.963768,50.406434c12.878094,12.878094 30.646915,20.840886 50.332705,20.840886l0.196612,0l0,0.049153c18.137469,-0.024577 34.28424,-0.909331 52.249673,-7.643296c18.334081,-6.856848 39.15039,-19.956131 66.848123,-44.557223c3.145794,17.006949 -30.671492,54.38783 -59.204827,65.078614c-21.209533,7.938215 -39.494461,8.970428 -59.892969,9.019581l0,0.049153l-0.196612,0c-25.682459,0 -48.980996,-10.469596 -65.865063,-27.378239c-16.834913,-16.834913 -27.279933,-40.133451 -27.329086,-65.865063l-0.049153,0l0,-0.172036c0,-25.805342 10.469596,-49.177608 27.378239,-66.061675c16.908643,-16.908643 40.256333,-27.378239 66.061675,-27.378239c57.238706,0 103.221367,14.401838 141.659038,44.827565c27.15705,21.504451 50.234399,50.848812 70.632907,88.647493c-20.718003,-263.632287 -194.891772,-254.44067 -195.432455,-254.416093l-0.761872,-21.897676z" class="fil1"/>
   <path fill="#ffffff" id="svg_8" d="m240.628307,180.832817c223.130188,-9.781453 76.67873,-185.061165 -10.420443,-24.060409c113.543504,-180.809428 -148.294697,-182.529784 -31.556246,-1.646627c-106.662079,-152.546435 -186.707792,63.997248 -12.165375,23.372267c-138.095443,43.869081 12.263681,146.893836 19.833248,26.518061c-0.221189,98.232334 127.232623,22.192594 34.308816,-24.183292z" class="fil0"/>
   <path fill-rule="nonzero" fill="#2b2b2a" id="svg_9" d="m240.407118,175.352254c61.834514,-2.703417 94.02975,-18.039163 106.58835,-35.021535c8.036521,-10.887397 7.446684,-22.438359 1.253402,-31.113869c-6.512777,-9.117887 -19.022223,-15.262016 -34.28424,-14.647604c-21.209533,0.835602 -47.432676,14.67218 -70.829519,51.07c-2.531381,4.571232 -5.283951,9.24077 -8.282286,14.057767l-9.486535,-5.529716c2.75257,-5.062762 5.554293,-9.80603 8.405168,-14.254379c22.85616,-41.608042 23.98668,-71.763427 15.016251,-90.687344c-7.372955,-15.581511 -21.72564,-23.396843 -35.930866,-23.445996c-14.156073,-0.024577 -28.21384,7.643296 -35.021535,23.101925c-9.142464,20.693426 -5.775481,54.95309 25.436694,103.295097l-9.117887,6.094976l-0.172036,-0.270342c-27.845193,-39.691073 -53.159004,-53.159004 -72.009192,-52.544591c-14.647604,0.466954 -25.338388,9.756877 -29.786737,21.479875c-4.472926,11.821304 -2.67884,26.075683 7.741603,36.446973c13.246742,13.173013 40.108874,20.300202 85.305087,9.781453l2.900029,10.567902c-34.431699,10.93655 -49.669139,25.190929 -53.380193,38.241059c-3.047488,10.789091 2.138157,20.939192 10.715361,27.279933c8.798393,6.512777 21.012921,9.019581 31.6054,4.178008c11.895034,-5.406834 21.971405,-20.128167 23.790067,-48.759808l10.93655,0.344071c-0.049153,22.708701 6.979731,34.874076 16.146771,39.740226c8.454321,4.472926 18.923917,2.924605 27.255356,-2.162733c8.257709,-5.062762 14.278956,-13.566237 13.861155,-23.052772c-0.466954,-10.617055 -8.896699,-22.831583 -30.868104,-33.792709l2.211886,-10.395866zm115.386742,-28.484182c-12.902671,17.449326 -42.88602,33.301179 -97.34758,38.265635c14.917945,10.911973 21.086651,22.880736 21.553604,33.940169c0.614413,13.812002 -7.692449,25.903648 -19.095953,32.883378c-11.378927,6.955154 -25.952801,8.896699 -38.044447,2.506805c-6.906001,-3.637324 -12.902671,-9.953489 -16.884066,-19.489177c-5.603446,14.917945 -14.475568,23.937527 -24.330751,28.435029c-14.500144,6.586506 -30.96641,3.342406 -42.713985,-5.35768c-11.968763,-8.872122 -19.169682,-23.372267 -14.74591,-39.027507c2.850876,-10.076372 10.641631,-20.521391 25.338388,-29.934196c-27.64858,0.712719 -46.228427,-6.906001 -57.337012,-17.940857c-13.738272,-13.713696 -16.146771,-32.514731 -10.272984,-48.071665c5.92294,-15.606088 20.17732,-27.943499 39.71565,-28.582488c14.426415,-0.466954 31.752859,5.628022 50.50474,21.971405c-12.337411,-31.163022 -11.772151,-55.223431 -4.350043,-72.009192c8.74924,-19.808672 26.837555,-29.663855 45.07333,-29.614702c18.186622,0.049153 36.520703,9.978065 45.859779,29.713008c7.299225,15.409476 9.019581,36.938503 0.442377,64.390472c18.653576,-17.35102 37.774105,-24.674822 54.363253,-25.338388c19.169682,-0.761872 35.119841,7.299225 43.672469,19.243412c8.847546,12.411141 9.855183,28.803677 -1.400861,44.01654z" class="fil1"/>
   <circle fill="#ffee00" id="svg_10" r="27.476524" cy="178.399742" cx="213.274645" class="fil3"/>
   <path fill-rule="nonzero" fill="#2b2b2a" id="svg_11" d="m213.274645,145.442634c9.068734,0 17.326444,3.686477 23.273961,9.658571l0.024577,0c5.972093,5.972093 9.658571,14.229803 9.658571,23.298537c0,9.117887 -3.686477,17.35102 -9.658571,23.323114l-0.024577,0c-5.947517,5.972093 -14.205226,9.658571 -23.273961,9.658571c-9.117887,0 -17.35102,-3.686477 -23.323114,-9.658571c-5.972093,-5.972093 -9.658571,-14.205226 -9.658571,-23.323114c0,-9.068734 3.686477,-17.326444 9.658571,-23.298537l0,0c5.972093,-5.972093 14.205226,-9.658571 23.323114,-9.658571zm15.532358,17.400173c-3.956819,-3.956819 -9.461959,-6.414471 -15.532358,-6.414471c-6.070399,0 -11.575539,2.457652 -15.556935,6.439047l0,-0.024577c-3.981396,3.981396 -6.439047,9.486535 -6.439047,15.556935c0,6.070399 2.457652,11.575539 6.439047,15.556935c3.981396,3.981396 9.486535,6.439047 15.556935,6.439047c6.070399,0 11.575539,-2.457652 15.532358,-6.439047l0,0c3.981396,-3.981396 6.439047,-9.486535 6.439047,-15.556935c0,-6.070399 -2.457652,-11.575539 -6.439047,-15.556935z" class="fil1"/>
  </g>
 </g>
</svg>