<?xml version="1.0" encoding="UTF-8"?>
<!DOCTYPE svg PUBLIC "-//W3C//DTD SVG 1.1//EN" "http://www.w3.org/Graphics/SVG/1.1/DTD/svg11.dtd">
<svg xmlns="http://www.w3.org/2000/svg" xml:space="preserve" width="1201px" height="347px" version="1.1" style="shape-rendering:geometricPrecision; text-rendering:geometricPrecision; image-rendering:optimizeQuality; fill-rule:evenodd; clip-rule:evenodd"
viewBox="0 0 1201 346.96">
 <defs>
  <style type="text/css">
    .fil0 {fill:white}
    .fil3 {fill:#FFEE00}
    .fil2 {fill:#96C22C}
    .fil1 {fill:#2B2B2A;fill-rule:nonzero}
  </style>
 </defs>
 <g id="Layer_x0020_1">
  <metadata id="CorelCorpID_0Corel-Layer"/>
  <rect class="fil0" y="0.52" width="1201" height="346.96"/>
  <g id="_105553227435104">
   <g>
    <path class="fil1" d="M594.48 154.33c0.25,-0.01 89.6,-4.69 89.6,134.15l-9.3 0c-9.75,-23.1 -20.9,-39.85 -34.73,-50.8 -13.96,-11.05 -30.89,-16.28 -52.12,-16.28 -8.03,0 -15.3,3.25 -20.56,8.51 -5.26,5.26 -8.51,12.53 -8.51,20.56l0 0.07 -0.02 0c0.02,8 3.27,15.25 8.53,20.51 5.24,5.24 12.47,8.48 20.48,8.48l0.08 0 0 0.02c7.38,-0.01 13.95,-0.37 21.26,-3.11 7.46,-2.79 15.93,-8.12 27.2,-18.13 1.28,6.92 -12.48,22.13 -24.09,26.48 -8.63,3.23 -16.07,3.65 -24.37,3.67l0 0.02 -0.08 0c-10.45,0 -19.93,-4.26 -26.8,-11.14 -6.85,-6.85 -11.1,-16.33 -11.12,-26.8l-0.02 0 0 -0.07c0,-10.5 4.26,-20.01 11.14,-26.88 6.88,-6.88 16.38,-11.14 26.88,-11.14 23.29,0 42,5.86 57.64,18.24 11.05,8.75 20.44,20.69 28.74,36.07 -8.43,-107.27 -79.3,-103.53 -79.52,-103.52l-0.31 -8.91z"/>
    <path class="fil1" d="M715.39 199.03l0 8.4c1.6,-1.2 3.4,-2.27 5.36,-3.2 7.93,-3.77 18.64,-5.2 30.41,-5.2l0 8.95c-10.58,0 -20,1.19 -26.6,4.32 -5.68,2.7 -9.17,7.01 -9.17,13.57l0 62.61 -8.95 0 0 -62.61 0 -26.84 8.95 0z"/>
    <path class="fil1" d="M782.47 154.31l0 107.34 -0.02 0c0.02,1.05 0.54,17.88 17.91,17.88l0 8.95c-26.82,0 -26.82,-26.71 -26.82,-26.78l-0.01 -0.05 0 -107.34 8.94 0z"/>
    <path class="fil2" d="M778 198.73c22.36,0.31 44.72,0.31 44.72,-22.06 -22.36,0 -44.72,0 -44.72,22.06z"/>
    <path class="fil1" d="M780.33 196.53c10.21,0.12 20.23,0.01 27.72,-2.45 6.88,-2.26 11.65,-6.67 12.35,-15.17 -19.63,0.03 -38.59,0.67 -40.07,17.62zm29.11 1.79c-8.71,2.87 -20.09,2.79 -31.47,2.63l-2.21 -0.03 0 -2.19c0,-24.29 23.48,-24.29 46.96,-24.29l2.24 0 0 2.23c0,12.39 -6.21,18.59 -15.52,21.65z"/>
    <path class="fil0" d="M605.77 159.77c90.79,-3.98 31.2,-75.3 -4.24,-9.79 46.2,-73.57 -60.34,-74.27 -12.84,-0.67 -43.4,-62.07 -75.97,26.04 -4.95,9.51 -56.19,17.85 4.99,59.77 8.07,10.79 -0.09,39.97 51.77,9.03 13.96,-9.84z"/>
    <path class="fil1" d="M605.68 157.54c25.16,-1.1 38.26,-7.34 43.37,-14.25 3.27,-4.43 3.03,-9.13 0.51,-12.66 -2.65,-3.71 -7.74,-6.21 -13.95,-5.96 -8.63,0.34 -19.3,5.97 -28.82,20.78 -1.03,1.86 -2.15,3.76 -3.37,5.72l-3.86 -2.25c1.12,-2.06 2.26,-3.99 3.42,-5.8 9.3,-16.93 9.76,-29.2 6.11,-36.9 -3,-6.34 -8.84,-9.52 -14.62,-9.54 -5.76,-0.01 -11.48,3.11 -14.25,9.4 -3.72,8.42 -2.35,22.36 10.35,42.03l-3.71 2.48 -0.07 -0.11c-11.33,-16.15 -21.63,-21.63 -29.3,-21.38 -5.96,0.19 -10.31,3.97 -12.12,8.74 -1.82,4.81 -1.09,10.61 3.15,14.83 5.39,5.36 16.32,8.26 34.71,3.98l1.18 4.3c-14.01,4.45 -20.21,10.25 -21.72,15.56 -1.24,4.39 0.87,8.52 4.36,11.1 3.58,2.65 8.55,3.67 12.86,1.7 4.84,-2.2 8.94,-8.19 9.68,-19.84l4.45 0.14c-0.02,9.24 2.84,14.19 6.57,16.17 3.44,1.82 7.7,1.19 11.09,-0.88 3.36,-2.06 5.81,-5.52 5.64,-9.38 -0.19,-4.32 -3.62,-9.29 -12.56,-13.75l0.9 -4.23zm46.95 -11.59c-5.25,7.1 -17.45,13.55 -39.61,15.57 6.07,4.44 8.58,9.31 8.77,13.81 0.25,5.62 -3.13,10.54 -7.77,13.38 -4.63,2.83 -10.56,3.62 -15.48,1.02 -2.81,-1.48 -5.25,-4.05 -6.87,-7.93 -2.28,6.07 -5.89,9.74 -9.9,11.57 -5.9,2.68 -12.6,1.36 -17.38,-2.18 -4.87,-3.61 -7.8,-9.51 -6,-15.88 1.16,-4.1 4.33,-8.35 10.31,-12.18 -11.25,0.29 -18.81,-2.81 -23.33,-7.3 -5.59,-5.58 -6.57,-13.23 -4.18,-19.56 2.41,-6.35 8.21,-11.37 16.16,-11.63 5.87,-0.19 12.92,2.29 20.55,8.94 -5.02,-12.68 -4.79,-22.47 -1.77,-29.3 3.56,-8.06 10.92,-12.07 18.34,-12.05 7.4,0.02 14.86,4.06 18.66,12.09 2.97,6.27 3.67,15.03 0.18,26.2 7.59,-7.06 15.37,-10.04 22.12,-10.31 7.8,-0.31 14.29,2.97 17.77,7.83 3.6,5.05 4.01,11.72 -0.57,17.91z"/>
    <circle class="fil3" cx="594.64" cy="158.78" r="11.18"/>
    <path class="fil1" d="M594.64 145.37c3.69,0 7.05,1.5 9.47,3.93l0.01 0c2.43,2.43 3.93,5.79 3.93,9.48 0,3.71 -1.5,7.06 -3.93,9.49l-0.01 0c-2.42,2.43 -5.78,3.93 -9.47,3.93 -3.71,0 -7.06,-1.5 -9.49,-3.93 -2.43,-2.43 -3.93,-5.78 -3.93,-9.49 0,-3.69 1.5,-7.05 3.93,-9.48l0 0c2.43,-2.43 5.78,-3.93 9.49,-3.93zm6.32 7.08c-1.61,-1.61 -3.85,-2.61 -6.32,-2.61 -2.47,0 -4.71,1 -6.33,2.62l0 -0.01c-1.62,1.62 -2.62,3.86 -2.62,6.33 0,2.47 1,4.71 2.62,6.33 1.62,1.62 3.86,2.62 6.33,2.62 2.47,0 4.71,-1 6.32,-2.62l0 0c1.62,-1.62 2.62,-3.86 2.62,-6.33 0,-2.47 -1,-4.71 -2.62,-6.33z"/>
   </g>
   <path class="fil1" d="M859.32 274.49c0,2.32 -0.5,4.4 -1.5,6.23 -1,1.83 -2.34,3.39 -4.04,4.69 -1.7,1.29 -3.69,2.29 -5.98,2.99 -2.29,0.7 -4.76,1.05 -7.4,1.05 -2.59,0 -5.24,-0.27 -7.96,-0.81 -2.73,-0.54 -5.22,-1.35 -7.48,-2.42l1.45 -5.91c2,0.92 4.19,1.67 6.59,2.27 2.4,0.59 4.81,0.89 7.24,0.89 3.5,0 6.33,-0.74 8.49,-2.23 2.15,-1.48 3.23,-3.62 3.23,-6.42 0,-1.57 -0.31,-2.9 -0.93,-4.01 -0.62,-1.1 -1.47,-2.1 -2.55,-2.99 -1.07,-0.89 -2.33,-1.68 -3.76,-2.38 -1.42,-0.7 -2.95,-1.43 -4.56,-2.18 -1.84,-0.87 -3.6,-1.77 -5.3,-2.71 -1.7,-0.95 -3.19,-2.02 -4.49,-3.24 -1.29,-1.21 -2.33,-2.58 -3.11,-4.12 -0.78,-1.54 -1.17,-3.33 -1.17,-5.38 0,-2.31 0.42,-4.36 1.25,-6.14 0.84,-1.78 2.01,-3.26 3.52,-4.45 1.51,-1.18 3.31,-2.07 5.42,-2.67 2.1,-0.59 4.42,-0.88 6.95,-0.88 2.59,0 5.11,0.29 7.56,0.88 2.45,0.6 4.59,1.38 6.43,2.35l-1.38 5.9c-1.72,-0.92 -3.69,-1.67 -5.9,-2.26 -2.21,-0.6 -4.45,-0.89 -6.71,-0.89 -6.52,0 -9.78,2.53 -9.78,7.6 0,1.13 0.16,2.11 0.48,2.95 0.32,0.83 0.85,1.62 1.58,2.34 0.73,0.73 1.7,1.43 2.91,2.1 1.21,0.68 2.68,1.45 4.41,2.31 1.72,0.86 3.55,1.79 5.49,2.79 1.94,1 3.72,2.18 5.34,3.56 1.62,1.37 2.96,2.97 4.04,4.81 1.08,1.83 1.62,3.96 1.62,6.38zm9.05 13.99l0 -57.08 7.28 0 0 23.2c1.56,-1.88 3.31,-3.31 5.25,-4.28 1.94,-0.97 4.21,-1.46 6.79,-1.46 2.43,0 4.5,0.52 6.23,1.54 1.73,1.02 3.15,2.41 4.29,4.16 1.13,1.76 1.95,3.79 2.46,6.11 0.51,2.32 0.77,4.77 0.77,7.36l0 20.45 -7.28 0 0 -20.21c0,-2 -0.16,-3.82 -0.48,-5.46 -0.33,-1.64 -0.84,-3.06 -1.54,-4.24 -0.7,-1.19 -1.62,-2.12 -2.75,-2.79 -1.13,-0.68 -2.5,-1.01 -4.12,-1.01 -2.16,0 -4.06,0.56 -5.7,1.69 -1.64,1.14 -2.95,2.32 -3.92,3.56l0 28.46 -7.28 0zm79.64 -19.4c0,2.74 -0.42,5.33 -1.26,7.76 -0.83,2.42 -2.06,4.56 -3.67,6.42 -1.62,1.86 -3.6,3.33 -5.95,4.41 -2.34,1.08 -5,1.62 -7.96,1.62 -3.02,0 -5.69,-0.54 -8,-1.62 -2.32,-1.08 -4.29,-2.55 -5.91,-4.41 -1.61,-1.86 -2.84,-4 -3.67,-6.42 -0.84,-2.43 -1.26,-5.02 -1.26,-7.76 0,-2.75 0.42,-5.34 1.26,-7.77 0.83,-2.42 2.06,-4.56 3.67,-6.42 1.62,-1.86 3.59,-3.33 5.91,-4.41 2.31,-1.08 4.98,-1.62 8,-1.62 2.96,0 5.62,0.54 7.96,1.62 2.35,1.08 4.33,2.55 5.95,4.41 1.61,1.86 2.84,4 3.67,6.42 0.84,2.43 1.26,5.02 1.26,7.77zm-7.28 0c0,-2 -0.24,-3.88 -0.73,-5.66 -0.48,-1.78 -1.2,-3.33 -2.14,-4.65 -0.94,-1.32 -2.14,-2.36 -3.6,-3.11 -1.45,-0.76 -3.15,-1.14 -5.09,-1.14 -1.94,0 -3.64,0.38 -5.09,1.14 -1.46,0.75 -2.66,1.79 -3.6,3.11 -0.95,1.32 -1.66,2.87 -2.14,4.65 -0.49,1.78 -0.73,3.66 -0.73,5.66 0,2.04 0.24,3.94 0.73,5.7 0.48,1.75 1.19,3.28 2.14,4.6 0.94,1.32 2.14,2.36 3.6,3.12 1.45,0.75 3.15,1.13 5.09,1.13 1.94,0 3.64,-0.38 5.09,-1.13 1.46,-0.76 2.66,-1.8 3.6,-3.12 0.94,-1.32 1.66,-2.85 2.14,-4.6 0.49,-1.76 0.73,-3.66 0.73,-5.7zm16.57 -19.41l6.96 0 0 5.26c1.24,-1.67 2.83,-3.1 4.77,-4.29 1.94,-1.18 4.44,-1.78 7.52,-1.78 2.31,0 4.42,0.49 6.3,1.46 1.89,0.97 3.51,2.34 4.85,4.12 1.35,1.78 2.4,3.88 3.16,6.31 0.75,2.42 1.13,5.09 1.13,8 0,3.24 -0.5,6.13 -1.5,8.69 -0.99,2.56 -2.38,4.72 -4.16,6.47 -1.78,1.75 -3.87,3.09 -6.27,4 -2.4,0.92 -5,1.38 -7.8,1.38 -1.56,0 -2.95,-0.1 -4.16,-0.29 -1.22,-0.18 -2.39,-0.44 -3.52,-0.76l0 16.89 -7.28 0 0 -55.46zm17.39 5.1c-2.38,0 -4.4,0.55 -6.07,1.65 -1.67,1.11 -3.02,2.31 -4.04,3.6l0 22.4c0.92,0.37 1.97,0.64 3.15,0.8 1.19,0.17 2.43,0.25 3.72,0.25 4.04,0 7.26,-1.27 9.66,-3.8 2.4,-2.54 3.6,-6.17 3.6,-10.92 0,-1.99 -0.2,-3.85 -0.6,-5.58 -0.41,-1.72 -1.03,-3.2 -1.86,-4.44 -0.84,-1.24 -1.89,-2.21 -3.16,-2.91 -1.26,-0.7 -2.73,-1.05 -4.4,-1.05z"/>
   <path class="fil1" d="M244.95 273.49c0,2.2 -0.49,4.23 -1.49,6.08 -0.99,1.86 -2.4,3.44 -4.23,4.76 -1.83,1.31 -4.02,2.34 -6.57,3.06 -2.55,0.73 -5.39,1.09 -8.5,1.09l-15.16 0 0 -53.69 16.61 0c2.58,0 4.94,0.31 7.09,0.93 2.15,0.62 3.99,1.51 5.52,2.66 1.53,1.16 2.72,2.54 3.55,4.15 0.83,1.61 1.25,3.39 1.25,5.32 0,3.12 -1.04,5.74 -3.1,7.86 -2.07,2.12 -4.72,3.72 -7.94,4.8 3.97,0.75 7.13,2.21 9.47,4.39 2.34,2.18 3.5,5.04 3.5,8.59zm-7.09 -0.25c0,-1.61 -0.38,-3.02 -1.13,-4.23 -0.75,-1.21 -1.77,-2.2 -3.06,-2.98 -1.29,-0.78 -2.8,-1.36 -4.52,-1.73 -1.71,-0.38 -3.54,-0.57 -5.48,-0.57l-7.57 0 0 18.95 8.54 0c4.03,0 7.24,-0.8 9.63,-2.38 2.4,-1.59 3.59,-3.94 3.59,-7.06zm-14.91 -15.31c1.83,0 3.53,-0.22 5.12,-0.65 1.58,-0.43 2.95,-1.04 4.11,-1.85 1.15,-0.81 2.05,-1.77 2.7,-2.9 0.64,-1.13 0.97,-2.42 0.97,-3.87 0,-2.69 -1.01,-4.7 -3.03,-6.05 -2.01,-1.34 -4.63,-2.01 -7.86,-2.01l-8.86 0 0 17.33 6.85 0zm66.26 11.2c0,2.74 -0.42,5.32 -1.25,7.74 -0.83,2.42 -2.06,4.56 -3.67,6.41 -1.61,1.85 -3.58,3.32 -5.92,4.39 -2.34,1.08 -4.99,1.62 -7.94,1.62 -3.01,0 -5.67,-0.54 -7.98,-1.62 -2.31,-1.07 -4.28,-2.54 -5.89,-4.39 -1.61,-1.85 -2.83,-3.99 -3.67,-6.41 -0.83,-2.42 -1.25,-5 -1.25,-7.74 0,-2.74 0.42,-5.32 1.25,-7.74 0.84,-2.41 2.06,-4.55 3.67,-6.4 1.61,-1.86 3.58,-3.32 5.89,-4.4 2.31,-1.07 4.97,-1.61 7.98,-1.61 2.95,0 5.6,0.54 7.94,1.61 2.34,1.08 4.31,2.54 5.92,4.4 1.61,1.85 2.84,3.99 3.67,6.4 0.83,2.42 1.25,5 1.25,7.74zm-7.26 0c0,-1.99 -0.24,-3.87 -0.72,-5.64 -0.48,-1.77 -1.2,-3.32 -2.14,-4.63 -0.94,-1.32 -2.13,-2.36 -3.58,-3.11 -1.46,-0.75 -3.15,-1.13 -5.08,-1.13 -1.94,0 -3.63,0.38 -5.08,1.13 -1.45,0.75 -2.65,1.79 -3.59,3.11 -0.94,1.31 -1.65,2.86 -2.13,4.63 -0.49,1.77 -0.73,3.65 -0.73,5.64 0,2.05 0.24,3.94 0.73,5.69 0.48,1.74 1.19,3.27 2.13,4.59 0.94,1.32 2.14,2.35 3.59,3.1 1.45,0.76 3.14,1.13 5.08,1.13 1.93,0 3.62,-0.37 5.08,-1.13 1.45,-0.75 2.64,-1.78 3.58,-3.1 0.94,-1.32 1.66,-2.85 2.14,-4.59 0.48,-1.75 0.72,-3.64 0.72,-5.69zm11.93 -19.34l6.94 0 0 -9.92 7.25 0 0 9.92 12.74 0 0 5.88 -12.74 0 0 19.75c0,1.13 0.08,2.19 0.24,3.18 0.16,1 0.46,1.84 0.89,2.54 0.43,0.7 1.02,1.25 1.77,1.66 0.76,0.4 1.75,0.6 2.99,0.6 2.25,0 4.3,-0.35 6.12,-1.05l0.65 5.48c-0.86,0.38 -2.08,0.72 -3.67,1.01 -1.59,0.3 -3.13,0.45 -4.64,0.45 -2.09,0 -3.86,-0.34 -5.31,-1.01 -1.46,-0.67 -2.65,-1.61 -3.59,-2.82 -0.94,-1.21 -1.63,-2.65 -2.06,-4.32 -0.43,-1.66 -0.64,-3.49 -0.64,-5.48l0 -19.99 -6.94 0 0 -5.88zm57.56 33.85c-0.59,0.7 -1.32,1.39 -2.18,2.06 -0.86,0.67 -1.84,1.27 -2.94,1.81 -1.1,0.54 -2.31,0.97 -3.63,1.29 -1.31,0.32 -2.7,0.49 -4.15,0.49 -1.61,0 -3.09,-0.26 -4.43,-0.77 -1.34,-0.51 -2.5,-1.22 -3.47,-2.14 -0.96,-0.91 -1.73,-2.04 -2.29,-3.38 -0.57,-1.35 -0.85,-2.82 -0.85,-4.44 0,-3.54 1.25,-6.23 3.75,-8.06 2.5,-1.82 5.84,-2.87 10.03,-3.14 1.72,-0.11 3.43,-0.19 5.12,-0.24 1.7,-0.06 3.32,-0.08 4.88,-0.08l0 -1.7c0,-3.27 -0.7,-5.84 -2.1,-7.69 -1.39,-1.86 -3.71,-2.78 -6.93,-2.78 -1.88,0 -3.67,0.24 -5.36,0.72 -1.69,0.48 -3.32,1.16 -4.88,2.02l-1.69 -5.32c2.04,-1.24 4.13,-2.1 6.25,-2.58 2.12,-0.49 4.44,-0.73 6.97,-0.73 4.57,0 8.21,1.4 10.92,4.19 2.72,2.8 4.07,6.8 4.07,12.01l0 23.3 -7.09 0 0 -4.84zm-10.8 0.33c2.09,0 4.06,-0.47 5.88,-1.42 1.83,-0.94 3.42,-2.13 4.76,-3.58l0 -7.18c-1.61,0.11 -3.12,0.22 -4.52,0.33 -1.39,0.1 -2.79,0.24 -4.19,0.4 -1.13,0.11 -2.19,0.29 -3.18,0.56 -0.99,0.27 -1.85,0.63 -2.58,1.09 -0.73,0.46 -1.29,1.05 -1.69,1.77 -0.41,0.73 -0.61,1.6 -0.61,2.62 0,1.83 0.54,3.19 1.61,4.07 1.08,0.89 2.58,1.34 4.52,1.34zm29.42 4.51l0 -38.69 6.93 0 0 5.64c1.45,-2.04 3.2,-3.63 5.24,-4.76 2.05,-1.12 4.41,-1.69 7.1,-1.69 2.41,0 4.48,0.51 6.2,1.53 1.72,1.02 3.15,2.41 4.28,4.15 1.12,1.75 1.94,3.78 2.45,6.09 0.51,2.31 0.77,4.76 0.77,7.34l0 20.39 -7.25 0 0 -20.15c0,-1.99 -0.17,-3.81 -0.49,-5.44 -0.32,-1.64 -0.83,-3.05 -1.53,-4.24 -0.7,-1.18 -1.61,-2.11 -2.74,-2.78 -1.13,-0.67 -2.5,-1 -4.11,-1 -2.15,0 -4.05,0.56 -5.68,1.69 -1.64,1.13 -2.95,2.31 -3.91,3.55l0 28.37 -7.26 0zm44.66 0l0 -38.69 7.25 0 0 38.69 -7.25 0zm-0.97 -50.14c0,-1.24 0.42,-2.31 1.25,-3.22 0.83,-0.92 1.95,-1.37 3.35,-1.37 1.39,0 2.51,0.45 3.34,1.37 0.83,0.91 1.25,1.98 1.25,3.22 0,1.24 -0.42,2.31 -1.25,3.22 -0.83,0.92 -1.95,1.37 -3.34,1.37 -1.4,0 -2.52,-0.45 -3.35,-1.37 -0.83,-0.91 -1.25,-1.98 -1.25,-3.22zm36.52 10.64c2.15,0 4.16,0.19 6.04,0.57 1.88,0.37 3.5,0.88 4.84,1.53l-1.05 5.56c-1.4,-0.59 -2.89,-1.05 -4.47,-1.37 -1.59,-0.32 -3.16,-0.49 -4.72,-0.49 -4.35,0 -7.56,1.33 -9.63,3.99 -2.07,2.66 -3.1,6.12 -3.1,10.36 0,4.25 1.03,7.7 3.1,10.36 2.07,2.66 5.28,3.99 9.63,3.99 1.56,0 3.13,-0.16 4.72,-0.48 1.58,-0.32 3.07,-0.78 4.47,-1.37l1.05 5.56c-1.34,0.64 -3.04,1.15 -5.08,1.53 -2.04,0.38 -3.97,0.57 -5.8,0.57 -3.23,0 -6.05,-0.54 -8.47,-1.62 -2.41,-1.07 -4.43,-2.54 -6.04,-4.39 -1.61,-1.85 -2.82,-4 -3.63,-6.45 -0.81,-2.44 -1.21,-5.01 -1.21,-7.7 0,-2.68 0.4,-5.25 1.21,-7.7 0.81,-2.44 2.02,-4.59 3.63,-6.44 1.61,-1.86 3.63,-3.32 6.04,-4.4 2.42,-1.07 5.24,-1.61 8.47,-1.61zm41.51 34.66c-0.59,0.7 -1.31,1.39 -2.18,2.06 -0.85,0.67 -1.84,1.27 -2.94,1.81 -1.1,0.54 -2.31,0.97 -3.62,1.29 -1.32,0.32 -2.71,0.49 -4.16,0.49 -1.61,0 -3.09,-0.26 -4.43,-0.77 -1.34,-0.51 -2.5,-1.22 -3.47,-2.14 -0.96,-0.91 -1.73,-2.04 -2.29,-3.38 -0.57,-1.35 -0.85,-2.82 -0.85,-4.44 0,-3.54 1.25,-6.23 3.75,-8.06 2.5,-1.82 5.84,-2.87 10.04,-3.14 1.71,-0.11 3.42,-0.19 5.11,-0.24 1.7,-0.06 3.32,-0.08 4.88,-0.08l0 -1.7c0,-3.27 -0.7,-5.84 -2.1,-7.69 -1.39,-1.86 -3.7,-2.78 -6.93,-2.78 -1.88,0 -3.67,0.24 -5.36,0.72 -1.69,0.48 -3.32,1.16 -4.88,2.02l-1.69 -5.32c2.04,-1.24 4.13,-2.1 6.25,-2.58 2.12,-0.49 4.45,-0.73 6.97,-0.73 4.57,0 8.21,1.4 10.92,4.19 2.72,2.8 4.08,6.8 4.08,12.01l0 23.3 -7.1 0 0 -4.84zm-10.8 0.33c2.1,0 4.06,-0.47 5.88,-1.42 1.83,-0.94 3.42,-2.13 4.76,-3.58l0 -7.18c-1.61,0.11 -3.12,0.22 -4.51,0.33 -1.4,0.1 -2.8,0.24 -4.2,0.4 -1.12,0.11 -2.19,0.29 -3.18,0.56 -0.99,0.27 -1.85,0.63 -2.58,1.09 -0.72,0.46 -1.29,1.05 -1.69,1.77 -0.4,0.73 -0.61,1.6 -0.61,2.62 0,1.83 0.54,3.19 1.62,4.07 1.07,0.89 2.58,1.34 4.51,1.34zm36.27 -5.49c0,1.56 0.31,2.76 0.93,3.59 0.62,0.83 1.68,1.25 3.19,1.25 1.18,0 2.39,-0.16 3.62,-0.48l0.33 5.4c-1.78,0.59 -3.74,0.88 -5.89,0.88 -3.38,0 -5.8,-0.99 -7.25,-2.98 -1.46,-1.99 -2.18,-4.43 -2.18,-7.33l0 -47.24 7.25 0 0 46.91z"/>
  </g>
 </g>
</svg>
